<?xml version="1.0" encoding="UTF-8" standalone="no"?>
<svg version="1.1" width="1000" height="500" viewBox="0 0 330 160" xmlns="http://www.w3.org/2000/svg">
	<defs>
		<marker id="triangle" viewBox="0 0 10 10" refX="1" refY="5" markerUnits="strokeWidth" markerWidth="5" markerHeight="5" orient="auto">
			<path d="M 0 0 L 10 5 L 0 10 z" fill="#000"/>
		</marker>
	</defs>
	<path stroke="#000" marker-end="url(#triangle)" stroke-width="1.5" fill="none" d="
M 10 150 a 1 1 0 0 0 10 0 a 1 1 0 0 1 20 0 a 1 1 0 0 1 -10 0 a 1 1 0 0 1 40 0 a 1 1 0 0 0 10 0 a 1 1 0 0 0 -20 0 a 1 1 0 0 1 -10 0 a 1 1 0 0 1 80 0 a 1 1 0 0 0 10 0 a 1 1 0 0 1 20 0 a 1 1 0 0 1 -10 0 a 1 1 0 0 0 -40 0 a 1 1 0 0 0 10 0 a 1 1 0 0 0 -20 0 a 1 1 0 0 1 -10 0 a 1 1 0 0 1 160 0 a 1 1 0 0 0 10 0 a 1 1 0 0 1 20 0 a 1 1 0 0 1 -10 0 a 1 1 0 0 1 40 0 a 1 1 0 0 0 10 0 a 1 1 0 0 0 -20 0 a 1 1 0 0 1 -10 0 a 1 1 0 0 0 -80 0 a 1 1 0 0 0 10 0 a 1 1 0 0 1 20 0 a 1 1 0 0 1 -10 0 a 1 1 0 0 0 -40 0 a 1 1 0 0 0 10 0 a 1 1 0 0 0 -20 0 a 1 1 0 0 1 -10 0 c 0,-59.44 32.42,-111.32 80.54,-138.9
"/>
</svg>
